<svg xmlns="http://www.w3.org/2000/svg" width="14.289" height="7.626" viewBox="0 0 14.289 7.626">
  <g id="Gruppe_54" data-name="Gruppe 54" transform="translate(-741.836 -401.996)">
    <path id="Pfad_16" data-name="Pfad 16" d="M7.3-6.378H6.239L4.963-8.516a4.656,4.656,0,0,0-.34-.508,1.94,1.94,0,0,0-.338-.343,1.17,1.17,0,0,0-.372-.194,1.531,1.531,0,0,0-.449-.061H2.729v3.244H1.836V-14H4.112a3.244,3.244,0,0,1,.923.125,2.064,2.064,0,0,1,.734.38,1.767,1.767,0,0,1,.487.635,2.107,2.107,0,0,1,.175.891,2.145,2.145,0,0,1-.12.731,1.91,1.91,0,0,1-.34.593,2.063,2.063,0,0,1-.532.444,2.715,2.715,0,0,1-.7.285V-9.9a1.608,1.608,0,0,1,.332.194,1.829,1.829,0,0,1,.269.258,3.416,3.416,0,0,1,.253.338q.125.189.279.439ZM2.729-13.2v2.765H3.942a1.839,1.839,0,0,0,.62-.1,1.434,1.434,0,0,0,.492-.29,1.314,1.314,0,0,0,.324-.463,1.549,1.549,0,0,0,.117-.614,1.2,1.2,0,0,0-.4-.955A1.7,1.7,0,0,0,3.952-13.2Zm13.4,6.817h-.888v-5.116q0-.606.074-1.484H15.29a4.743,4.743,0,0,1-.229.739l-2.606,5.86H12.02L9.419-12.2a4.558,4.558,0,0,1-.229-.782H9.169q.043.457.043,1.494v5.105H8.35V-14H9.531l2.34,5.318a6.809,6.809,0,0,1,.351.915h.032q.229-.628.367-.936L15.008-14h1.117Z" transform="translate(740 416)"/>
  </g>
</svg>
